<svg version="1.1" id="Layer_1" xmlns="http://www.w3.org/2000/svg" xmlns:xlink="http://www.w3.org/1999/xlink" x="0px" y="0px"
	 width="100%" viewBox="0 0 832 592" enable-background="new 0 0 832 592" xml:space="preserve">
<path fill="#000000" opacity="1.000000" stroke="none" 
	d="
M271.478943,294.492218 
	C263.810089,300.284424 256.681305,306.144958 250.020584,312.916870 
	C252.214554,314.177032 254.069214,313.677246 255.830139,313.679565 
	C284.820099,313.718018 313.810120,313.709045 342.800110,313.717560 
	C351.162506,313.720001 351.092651,313.729095 351.006989,321.875946 
	C350.910614,331.038483 350.842255,340.204437 350.996002,349.364960 
	C351.060303,353.197662 349.824860,354.481873 345.806458,354.466034 
	C307.320343,354.314178 268.833405,354.383453 230.346695,354.361389 
	C227.041473,354.359467 223.994751,354.082031 223.934998,358.980927 
	C223.881897,363.337372 225.437332,364.888580 229.792374,364.733063 
	C236.200073,364.504272 236.214676,364.730469 236.246002,371.185913 
	C236.269455,376.017517 236.255051,380.849335 236.299316,385.680695 
	C236.309891,386.836731 236.530197,389.004883 236.580887,389.002716 
	C242.498215,388.748901 243.261429,396.857208 249.089996,396.667267 
	C252.418365,396.558777 255.756363,396.748169 259.084930,396.642426 
	C262.005890,396.549652 263.423340,397.671967 263.275726,400.725372 
	C263.139526,403.543365 263.757080,406.772034 259.457031,406.867249 
	C253.461960,407.000000 247.459564,407.176880 241.469177,407.012299 
	C237.622818,406.906647 236.039963,408.229187 236.215897,412.200317 
	C236.459030,417.687561 236.194656,423.195312 236.304977,428.691162 
	C236.363983,431.630585 235.202621,432.784515 232.221558,432.972992 
	C219.930344,433.750183 219.982300,433.825470 219.977951,421.700409 
	C219.963654,381.883545 219.914627,342.066711 219.868164,302.249847 
	C219.865265,299.765015 219.978119,297.294556 218.758621,294.931702 
	C217.934860,293.335632 218.225006,291.619598 219.768219,290.449768 
	C221.115753,289.428284 222.641159,289.410309 223.874161,290.584625 
	C225.208054,291.855042 225.388199,293.392242 224.536057,295.140045 
	C222.134995,300.064819 223.907684,305.273956 223.309647,310.214996 
	C225.033615,311.099243 225.834213,309.965820 226.575378,309.230927 
	C247.747437,288.238464 271.793091,270.982056 296.878784,255.075333 
	C305.236542,249.775696 311.163452,242.615616 313.536102,232.885208 
	C314.151794,230.360092 315.580658,229.725082 317.806335,229.735229 
	C321.304932,229.751190 324.803955,229.749649 328.302368,229.713089 
	C331.427307,229.680435 332.150146,230.995956 331.690796,234.115707 
	C329.397583,249.689178 320.886810,261.129608 308.163849,269.634399 
	C295.981628,277.777740 283.595673,285.615540 271.478943,294.492218 
z"/>
<path fill="#000000" opacity="1.000000" stroke="none" 
	d="
M601.366211,247.999893 
	C601.361023,253.828018 601.160583,259.165710 601.419434,264.481049 
	C601.592834,268.041656 600.118530,269.452393 596.800171,270.202057 
	C575.073425,275.110565 553.381104,280.171387 531.677368,285.181763 
	C528.601379,285.891907 525.510376,286.542664 522.452026,287.321777 
	C519.090271,288.178131 517.787231,286.715698 517.870605,283.504303 
	C517.887878,282.839020 517.854492,282.172546 517.854492,281.506622 
	C517.852417,245.207993 517.846130,208.909348 517.854614,172.610718 
	C517.856384,164.930496 517.881409,164.927277 525.704590,164.871201 
	C548.180237,164.710068 570.655823,164.531815 593.131653,164.404449 
	C599.945312,164.365845 601.333618,165.724457 601.345032,172.572006 
	C601.386536,197.547913 601.364563,222.523956 601.366211,247.999893 
M561.739746,217.400574 
	C564.474854,221.380524 568.645691,222.022949 572.028503,218.525085 
	C581.384583,208.850967 583.250244,198.049179 572.000305,187.998367 
	C569.114197,185.419891 566.503296,185.427460 564.047791,188.807541 
	C562.722839,190.631409 561.935059,192.481934 561.746887,194.704971 
	C561.130005,201.995544 561.257629,209.288315 561.739746,217.400574 
z"/>
<path fill="#000000" opacity="1.000000" stroke="none" 
	d="
M449.752747,242.101532 
	C456.762909,243.690979 463.371429,245.170258 470.116638,246.680115 
	C472.058167,241.332275 471.677307,236.325012 471.479828,231.394257 
	C470.659210,210.904648 471.353149,190.408386 471.090729,169.917252 
	C471.065948,167.983200 470.739288,165.648544 473.850189,165.648529 
	C486.470215,165.648453 499.090240,165.648483 511.389893,165.648483 
	C512.770264,167.952957 512.327515,169.827759 512.328125,171.611328 
	C512.346741,229.436462 512.276062,287.261749 512.433350,345.086456 
	C512.447083,350.136719 511.359650,352.142944 505.905640,351.931122 
	C495.924805,351.543457 485.914307,351.830963 475.918121,351.972839 
	C472.276184,352.024536 471.058075,350.666229 471.097473,346.907074 
	C471.296448,327.928406 471.191193,308.946686 471.241333,289.966187 
	C471.252747,285.638397 471.363373,281.306061 471.597931,276.985016 
	C471.845276,272.427979 470.084229,270.105286 465.344727,269.170532 
	C454.739349,267.078918 444.271637,264.297913 433.691376,262.065674 
	C429.807526,261.246246 428.502838,259.296844 428.734741,255.487930 
	C428.997620,251.170731 428.886200,246.824524 428.795380,242.493912 
	C428.719482,238.874741 429.684662,237.195877 433.804047,238.395798 
	C438.902893,239.881012 444.161499,240.817688 449.752747,242.101532 
z"/>
<path fill="#000000" opacity="1.000000" stroke="none" 
	d="
M355.261200,224.214447 
	C355.723175,254.753143 341.025574,276.111176 316.636871,291.916016 
	C310.351624,295.989105 303.947021,299.911835 297.934540,304.359619 
	C294.210419,307.114563 290.418335,308.265900 285.889130,308.063965 
	C281.068939,307.849121 276.231079,308.036133 271.400940,308.036713 
	C269.626251,308.036926 267.747864,308.322174 266.218170,306.257050 
	C271.794983,300.600494 278.339050,296.379669 284.719147,292.000427 
	C293.641815,285.875977 302.852386,280.167969 311.723816,273.972534 
	C326.608307,263.577820 336.429962,249.917099 337.981354,231.277893 
	C338.528961,224.698532 337.816467,223.997162 331.390015,223.951218 
	C329.224823,223.935745 327.056885,223.871857 324.894745,223.952408 
	C318.490082,224.191055 313.302856,224.256622 310.553497,215.905670 
	C307.999908,208.149399 300.082336,205.212402 291.787903,205.197906 
	C270.135376,205.160049 248.482788,205.170609 226.830215,205.164841 
	C220.303040,205.163101 220.019394,204.926086 219.996277,198.498505 
	C219.960922,188.671707 220.091919,178.842804 219.923431,169.018723 
	C219.853302,164.929703 221.344498,163.569168 225.493088,163.599976 
	C247.977112,163.766937 270.463928,163.544006 292.948181,163.695007 
	C324.492432,163.906845 350.450104,187.081482 354.420380,218.319458 
	C354.651001,220.133942 354.968689,221.937347 355.261200,224.214447 
z"/>
<path fill="#000000" opacity="1.000000" stroke="none" 
	d="
M419.157806,108.377800 
	C422.758881,108.759323 424.102112,110.932602 423.110321,113.657135 
	C420.386749,121.139061 421.567993,128.829193 421.379333,136.436935 
	C421.201752,143.598038 420.680878,150.840256 421.460327,157.920273 
	C425.223267,192.099091 422.212708,226.363159 423.117615,260.571198 
	C423.221375,264.492310 424.688232,266.096222 428.477142,266.873840 
	C438.906311,269.014313 449.249298,271.572968 459.635254,273.926758 
	C464.641785,275.061462 467.457520,281.278778 464.938782,285.873230 
	C463.743439,288.053741 461.774353,287.246307 460.059753,286.848572 
	C443.038849,282.900665 426.026581,278.915405 409.016113,274.922699 
	C401.565552,273.173889 394.172821,271.128296 386.660370,269.713837 
	C382.558990,268.941620 381.699036,266.813507 381.711151,263.142548 
	C381.789703,239.313187 381.731354,215.483368 381.719269,191.653702 
	C381.715790,184.821411 381.705261,177.989105 381.719818,171.156845 
	C381.733582,164.682571 381.746185,164.673889 388.454834,164.665009 
	C396.620239,164.654205 404.787354,164.563400 412.950287,164.704865 
	C416.334351,164.763504 417.735931,163.604370 417.706055,160.083832 
	C417.591461,146.587082 417.673706,133.088577 417.697418,119.590759 
	C417.700409,117.889908 417.310333,116.361656 416.503784,114.823959 
	C415.019775,111.994614 415.522369,109.670372 419.157806,108.377800 
z"/>
<path fill="#000000" opacity="1.000000" stroke="none" 
	d="
M504.393005,421.371552 
	C505.677307,424.793884 508.366364,423.794586 510.520111,423.848145 
	C513.717529,423.927643 514.375122,425.702606 514.361206,428.405914 
	C514.347351,431.096771 513.233337,432.375946 510.473022,432.347046 
	C504.310822,432.282501 498.146973,432.272430 491.984924,432.340729 
	C489.454132,432.368744 488.478729,431.331665 488.414825,428.778931 
	C487.918671,408.963959 487.998566,389.151428 488.331726,369.335236 
	C488.392426,365.722900 489.642395,364.452118 493.369049,364.568054 
	C497.497040,364.696411 497.297913,367.161530 497.272003,369.935577 
	C497.230011,374.432556 497.333679,378.932312 497.216003,383.426697 
	C497.140381,386.316620 498.135559,387.735107 501.237244,387.673035 
	C506.897552,387.559753 512.562500,387.695465 518.225403,387.684357 
	C520.687744,387.679535 523.323242,387.232971 523.463440,384.289520 
	C523.621338,380.972198 520.831482,380.450165 518.202026,380.376099 
	C515.039673,380.287018 511.872162,380.391113 508.708649,380.326416 
	C506.309021,380.277344 504.426483,380.673004 504.166016,383.638550 
	C504.004395,385.478180 502.628479,386.106140 500.924438,385.906067 
	C499.272217,385.712067 498.773438,384.502563 498.768890,383.044647 
	C498.750244,377.099243 498.761078,371.153748 498.761078,364.921143 
	C507.761078,364.921143 516.311401,364.062866 524.614014,365.130615 
	C535.898193,366.581848 542.368347,378.215515 539.017822,389.816803 
	C538.128601,392.895874 538.354431,394.952911 540.159180,397.549500 
	C545.406250,405.098755 545.624878,413.227448 541.151978,421.126953 
	C536.773987,428.858765 529.801270,432.426758 520.838440,432.404907 
	C517.265442,432.396179 515.365723,431.334412 515.832214,427.575958 
	C516.363037,423.299652 514.358337,421.897247 510.349030,422.295715 
	C508.280670,422.501251 506.087158,422.269592 506.055481,419.442322 
	C506.021973,416.455872 508.379669,416.708832 510.363861,416.679565 
	C513.694580,416.630402 517.032593,416.773010 520.355957,416.605621 
	C524.740601,416.384766 527.917725,413.574707 527.701050,409.994507 
	C527.418884,405.329895 524.223328,403.877472 520.099060,403.939850 
	C500.628784,404.234192 504.808533,401.088623 504.288025,418.946014 
	C504.268616,419.610931 504.318817,420.277893 504.393005,421.371552 
z"/>
<path fill="#000000" opacity="1.000000" stroke="none" 
	d="
M432.272125,368.774872 
	C436.400482,369.726776 437.697906,372.103760 437.342529,375.832672 
	C437.096710,378.411743 437.295319,381.033112 437.295319,384.680328 
	C444.518066,379.377594 449.649414,373.522522 454.970184,367.957703 
	C457.930756,364.861389 461.022766,363.592285 465.113373,363.922211 
	C469.933319,364.310913 474.888672,363.292206 480.704010,365.032684 
	C469.364471,376.176758 458.761627,386.596832 448.142487,397.032898 
	C452.885620,403.984467 459.819946,407.684235 463.766907,414.458801 
	C460.178772,415.928802 457.562531,415.547058 455.188538,413.100677 
	C451.479736,409.278839 447.344757,405.817780 444.000977,401.707123 
	C439.280029,395.903442 433.663574,393.109711 426.204620,394.359497 
	C422.022186,395.060303 420.787231,393.267792 420.804657,389.134827 
	C420.910492,364.001465 420.774353,338.867065 420.750275,313.733002 
	C420.748840,312.231018 419.967865,309.906311 422.705353,310.140625 
	C424.900696,310.328461 424.134857,312.351074 424.132385,313.738922 
	C424.106842,328.219238 424.059143,342.699524 424.026489,357.179840 
	C424.007812,365.453278 424.015198,365.453308 432.272125,368.774872 
z"/>
<path fill="#000000" opacity="1.000000" stroke="none" 
	d="
M282.971191,383.000458 
	C282.965729,399.563690 282.965729,415.627075 282.965729,432.387634 
	C276.870422,431.028412 272.519531,428.648193 268.124786,426.441650 
	C266.310364,425.530640 266.695312,423.579041 266.686920,421.956177 
	C266.645569,413.957336 266.533142,405.955597 266.705322,397.960449 
	C266.780334,394.478241 265.531128,393.149231 262.056030,393.328339 
	C258.234283,393.525299 254.392899,393.314209 250.560440,393.338593 
	C248.373367,393.352509 247.095642,392.518555 247.011612,390.171326 
	C246.917984,387.555939 248.263794,386.633698 250.699966,386.662903 
	C254.532104,386.708832 258.369019,386.550812 262.197083,386.680176 
	C265.379822,386.787720 266.748840,385.516876 266.680206,382.277374 
	C266.570801,377.114410 266.850861,371.941345 266.679138,366.782135 
	C266.554749,363.046051 268.206512,361.898407 271.737396,361.780731 
	C282.997772,361.405487 282.993408,361.307800 282.977936,372.501801 
	C282.973328,375.834747 282.976837,379.167694 282.971191,383.000458 
z"/>
<path fill="#000000" opacity="1.000000" stroke="none" 
	d="
M302.195801,403.027374 
	C308.440857,389.155579 314.613220,375.641449 320.785583,362.127319 
	C321.396729,362.125427 322.007904,362.123535 322.619049,362.121643 
	C330.702972,379.719971 338.786865,397.318298 347.418152,416.108215 
	C337.077881,416.108215 328.184052,416.126984 319.290558,416.082520 
	C318.274780,416.077454 317.246674,415.605286 317.132904,414.412476 
	C317.003662,413.056824 317.825562,412.142822 319.110291,411.974274 
	C321.385620,411.675781 323.686249,411.569916 326.238770,411.362030 
	C326.371735,407.034454 323.576324,404.161652 322.281128,400.621948 
	C318.419983,404.720520 308.227478,407.014465 303.018341,404.995850 
	C302.577972,404.825256 302.414948,403.938904 302.195801,403.027374 
z"/>
<path fill="#000000" opacity="1.000000" stroke="none" 
	d="
M372.846680,416.045258 
	C369.918915,418.256470 368.190002,416.756104 366.730011,414.694550 
	C363.897491,410.695068 361.692383,406.397491 361.675995,401.357574 
	C361.667419,398.712433 360.866425,397.192261 357.949219,397.400024 
	C355.039795,397.607239 354.620972,395.843872 355.048859,393.522888 
	C357.402771,380.754730 364.294250,371.349945 376.493866,366.730743 
	C388.590729,362.150391 400.054535,364.187164 410.419861,372.049622 
	C412.587524,373.693817 413.167053,375.289642 410.806427,377.246643 
	C409.783875,378.094360 408.763092,379.003174 407.966980,380.054901 
	C404.629120,384.464539 401.372223,385.788422 395.954803,382.362671 
	C389.494751,378.277679 380.657043,380.568512 375.537537,386.324310 
	C370.080017,392.460083 369.320099,401.507416 374.295166,408.516937 
	C376.627838,411.803497 376.371063,413.816833 372.846680,416.045258 
z"/>
<path fill="#000000" opacity="1.000000" stroke="none" 
	d="
M548.926758,426.286499 
	C546.374756,423.883026 548.133850,422.842957 549.935059,422.135834 
	C556.216431,419.669861 562.060730,416.255463 569.349304,416.510773 
	C577.011597,416.779175 583.522888,409.858490 583.793579,402.127930 
	C584.038147,395.143799 584.023682,388.144379 583.896301,381.155823 
	C583.826050,377.303467 585.600342,376.272980 589.121948,376.532501 
	C592.319580,376.768097 595.663330,376.166290 595.327148,381.203430 
	C595.061646,385.180786 595.268616,389.190552 595.288940,393.185822 
	C595.303589,396.079163 594.554443,399.089050 598.715027,400.343292 
	C600.641174,400.923920 599.980591,403.491608 599.753906,405.297333 
	C596.712646,429.523804 569.618530,440.888031 548.926758,426.286499 
z"/>
<path fill="#000000" opacity="1.000000" stroke="none" 
	d="
M420.837799,426.823669 
	C420.860168,418.178558 421.035187,410.011597 420.840210,401.853485 
	C420.739410,397.634003 422.109497,396.072968 426.542297,395.850525 
	C432.957916,395.528595 438.269196,396.668518 442.395142,402.026154 
	C444.407898,404.639801 447.148132,406.681854 449.453247,409.084167 
	C453.738983,413.550690 457.865936,418.239227 465.051910,416.956207 
	C465.508514,416.874695 466.108368,417.000549 466.501862,417.250214 
	C472.112823,420.810455 476.325562,425.719788 480.072479,431.351715 
	C470.220642,431.477997 460.006714,435.604156 452.246521,425.233917 
	C448.454865,420.166931 443.640076,415.620819 437.917145,411.300781 
	C436.735718,416.983856 437.296387,422.107452 437.346954,427.158142 
	C437.385254,430.982758 436.214325,432.806274 432.181946,432.370300 
	C430.205688,432.156647 428.176147,432.192902 426.190796,432.357788 
	C422.438873,432.669312 420.418121,431.326538 420.837799,426.823669 
z"/>
<path fill="#000000" opacity="1.000000" stroke="none" 
	d="
M350.599976,423.075134 
	C351.573334,425.160675 351.502563,426.586029 349.424072,427.446381 
	C346.192200,428.784210 342.997650,430.212006 339.775940,431.574829 
	C338.621002,432.063354 337.374512,432.182495 336.660828,430.960266 
	C334.675018,427.559357 331.418732,427.961792 328.261993,427.961487 
	C323.762268,427.961029 319.262177,427.973022 314.762909,427.922821 
	C311.639923,427.887970 308.313660,427.139313 306.786285,431.176239 
	C306.576843,431.729858 305.414978,432.218475 304.684662,432.232056 
	C299.739044,432.324005 294.790894,432.280090 289.033569,432.280090 
	C292.292572,423.347992 296.199066,415.705292 300.080170,408.060303 
	C300.638336,406.960785 302.035675,406.895691 303.220612,406.857697 
	C304.552765,406.814941 305.887543,406.768677 307.219086,406.803680 
	C316.855499,407.057434 319.227386,404.695953 314.026794,416.710297 
	C315.057281,418.308746 316.709625,417.682465 318.093719,417.691650 
	C326.259491,417.745911 334.433441,417.913391 342.588959,417.614380 
	C346.722900,417.462769 349.324615,418.743591 350.599976,423.075134 
z"/>
<path fill="#000000" opacity="1.000000" stroke="none" 
	d="
M362.887207,411.028595 
	C363.623993,412.379883 364.147736,413.426056 364.778229,414.403351 
	C368.714203,420.503784 369.213165,420.655060 374.912109,416.134552 
	C377.221802,414.302429 379.187500,413.565521 382.119141,415.001129 
	C387.880524,417.822449 393.605347,416.678375 398.670166,413.214630 
	C401.498505,411.280426 403.416107,411.453369 405.474579,413.939148 
	C406.214966,414.833221 407.098328,415.608612 407.913025,416.441528 
	C413.976624,422.640778 413.924988,422.998444 406.289459,427.736603 
	C386.485504,440.025787 358.815735,427.310272 355.290253,404.262451 
	C355.010529,402.433655 353.979095,399.887390 356.862457,399.292480 
	C359.622253,398.723053 359.991516,401.070343 360.275421,403.127777 
	C360.643372,405.794373 361.505768,408.300385 362.887207,411.028595 
z"/>
<path fill="#000000" opacity="1.000000" stroke="none" 
	d="
M602.112305,330.317047 
	C604.838928,329.461487 604.575134,331.197357 604.567261,332.707947 
	C604.463867,352.478180 604.361267,372.248444 604.248901,392.018616 
	C604.236572,394.183289 604.500427,396.730835 601.301147,396.706573 
	C597.815735,396.680206 598.182922,393.957611 598.224548,391.626404 
	C598.301514,387.311523 598.469849,382.997589 598.493896,378.682678 
	C598.513123,375.226990 597.341003,372.791290 593.226624,373.329163 
	C588.750244,373.914368 588.003052,371.275665 587.933228,367.599182 
	C587.857666,363.620697 589.312439,361.627045 593.475159,362.015533 
	C594.792419,362.138489 596.135010,361.962738 597.460205,362.033661 
	C600.690430,362.206635 601.824402,360.658844 601.797791,357.516205 
	C601.721863,348.550964 601.840820,339.584106 602.112305,330.317047 
z"/>
</svg>