<?xml version="1.0" encoding="UTF-8" standalone="no" ?>
<!DOCTYPE svg PUBLIC "-//W3C//DTD SVG 1.1//EN" "http://www.w3.org/Graphics/SVG/1.1/DTD/svg11.dtd">
<svg xmlns="http://www.w3.org/2000/svg" xmlns:xlink="http://www.w3.org/1999/xlink" version="1.1" width="1080" height="1080" viewBox="0 0 1080 1080" xml:space="preserve">
<desc>Created with Fabric.js 5.2.4</desc>
<defs>
</defs>
<g transform="matrix(1 0 0 1 540 540)" id="19522c08-882e-4c2b-ba50-be83cf9069a7"  >
<rect style="stroke: none; stroke-width: 1; stroke-dasharray: none; stroke-linecap: butt; stroke-dashoffset: 0; stroke-linejoin: miter; stroke-miterlimit: 4; fill: rgb(255,255,255); fill-rule: nonzero; opacity: 1; visibility: hidden;" vector-effect="non-scaling-stroke"  x="-540" y="-540" rx="0" ry="0" width="1080" height="1080" />
</g>
<g transform="matrix(1 0 0 1 540 540)" id="a81355c9-b3ae-4e48-80f9-3bbb425ee38d"  >
</g>
<g transform="matrix(1 0 0 1 413.23 600.67)"  >
<path style="stroke: none; stroke-width: 1; stroke-dasharray: none; stroke-linecap: butt; stroke-dashoffset: 0; stroke-linejoin: miter; stroke-miterlimit: 4; fill: rgb(255,255,255); fill-rule: nonzero; opacity: 1;" vector-effect="non-scaling-stroke"  transform=" translate(-284.67, -331.49)" d="M 271.478943 294.492218 C 263.810089 300.284424 256.681305 306.144958 250.020584 312.91687 C 252.214554 314.177032 254.069214 313.677246 255.830139 313.679565 C 284.820099 313.718018 313.81012 313.709045 342.80011 313.71756 C 351.162506 313.720001 351.092651 313.729095 351.006989 321.875946 C 350.910614 331.038483 350.842255 340.204437 350.996002 349.36496 C 351.060303 353.197662 349.82486 354.481873 345.806458 354.466034 C 307.320343 354.314178 268.833405 354.383453 230.346695 354.361389 C 227.041473 354.359467 223.994751 354.082031 223.934998 358.980927 C 223.881897 363.337372 225.437332 364.88858 229.792374 364.733063 C 236.200073 364.504272 236.214676 364.730469 236.246002 371.185913 C 236.269455 376.017517 236.255051 380.849335 236.299316 385.680695 C 236.309891 386.836731 236.530197 389.004883 236.580887 389.002716 C 242.498215 388.748901 243.261429 396.857208 249.089996 396.667267 C 252.418365 396.558777 255.756363 396.748169 259.08493 396.642426 C 262.00589 396.549652 263.42334 397.671967 263.275726 400.725372 C 263.139526 403.543365 263.75708 406.772034 259.457031 406.867249 C 253.46196 407 247.459564 407.17688 241.469177 407.012299 C 237.622818 406.906647 236.039963 408.229187 236.215897 412.200317 C 236.45903 417.687561 236.194656 423.195312 236.304977 428.691162 C 236.363983 431.630585 235.202621 432.784515 232.221558 432.972992 C 219.930344 433.750183 219.9823 433.82547 219.977951 421.700409 C 219.963654 381.883545 219.914627 342.066711 219.868164 302.249847 C 219.865265 299.765015 219.978119 297.294556 218.758621 294.931702 C 217.93486 293.335632 218.225006 291.619598 219.768219 290.449768 C 221.115753 289.428284 222.641159 289.410309 223.874161 290.584625 C 225.208054 291.855042 225.388199 293.392242 224.536057 295.140045 C 222.134995 300.064819 223.907684 305.273956 223.309647 310.214996 C 225.033615 311.099243 225.834213 309.96582 226.575378 309.230927 C 247.747437 288.238464 271.793091 270.982056 296.878784 255.075333 C 305.236542 249.775696 311.163452 242.615616 313.536102 232.885208 C 314.151794 230.360092 315.580658 229.725082 317.806335 229.735229 C 321.304932 229.75119 324.803955 229.749649 328.302368 229.713089 C 331.427307 229.680435 332.150146 230.995956 331.690796 234.115707 C 329.397583 249.689178 320.88681 261.129608 308.163849 269.634399 C 295.981628 277.77774 283.595673 285.61554 271.478943 294.492218 z" stroke-linecap="round" />
</g>
<g transform="matrix(1 0 0 1 688.2 495.16)"  >
<path style="stroke: none; stroke-width: 1; stroke-dasharray: none; stroke-linecap: butt; stroke-dashoffset: 0; stroke-linejoin: miter; stroke-miterlimit: 4; fill: rgb(0,0,0); fill-opacity: 0; fill-rule: nonzero; opacity: 1;" vector-effect="non-scaling-stroke"  transform=" translate(-559.64, -225.98)" d="M 601.366211 247.999893 C 601.361023 253.828018 601.160583 259.16571 601.419434 264.481049 C 601.592834 268.041656 600.11853 269.452393 596.800171 270.202057 C 575.073425 275.110565 553.381104 280.171387 531.677368 285.181763 C 528.601379 285.891907 525.510376 286.542664 522.452026 287.321777 C 519.090271 288.178131 517.787231 286.715698 517.870605 283.504303 C 517.887878 282.83902 517.854492 282.172546 517.854492 281.506622 C 517.852417 245.207993 517.84613 208.909348 517.854614 172.610718 C 517.856384 164.930496 517.881409 164.927277 525.70459 164.871201 C 548.180237 164.710068 570.655823 164.531815 593.131653 164.404449 C 599.945312 164.365845 601.333618 165.724457 601.345032 172.572006 C 601.386536 197.547913 601.364563 222.523956 601.366211 247.999893 M 561.739746 217.400574 C 564.474854 221.380524 568.645691 222.022949 572.028503 218.525085 C 581.384583 208.850967 583.250244 198.049179 572.000305 187.998367 C 569.114197 185.419891 566.503296 185.42746 564.047791 188.807541 C 562.722839 190.631409 561.935059 192.481934 561.746887 194.704971 C 561.130005 201.995544 561.257629 209.288315 561.739746 217.400574 z" stroke-linecap="round" />
</g>
<g transform="matrix(1 0 0 1 599.13 527.99)"  >
<path style="stroke: none; stroke-width: 1; stroke-dasharray: none; stroke-linecap: butt; stroke-dashoffset: 0; stroke-linejoin: miter; stroke-miterlimit: 4; fill: rgb(255,255,255); fill-rule: nonzero; opacity: 1;" vector-effect="non-scaling-stroke"  transform=" translate(-470.57, -258.81)" d="M 449.752747 242.101532 C 456.762909 243.690979 463.371429 245.170258 470.116638 246.680115 C 472.058167 241.332275 471.677307 236.325012 471.479828 231.394257 C 470.65921 210.904648 471.353149 190.408386 471.090729 169.917252 C 471.065948 167.9832 470.739288 165.648544 473.850189 165.648529 C 486.470215 165.648453 499.09024 165.648483 511.389893 165.648483 C 512.770264 167.952957 512.327515 169.827759 512.328125 171.611328 C 512.346741 229.436462 512.276062 287.261749 512.43335 345.086456 C 512.447083 350.136719 511.35965 352.142944 505.90564 351.931122 C 495.924805 351.543457 485.914307 351.830963 475.918121 351.972839 C 472.276184 352.024536 471.058075 350.666229 471.097473 346.907074 C 471.296448 327.928406 471.191193 308.946686 471.241333 289.966187 C 471.252747 285.638397 471.363373 281.306061 471.597931 276.985016 C 471.845276 272.427979 470.084229 270.105286 465.344727 269.170532 C 454.739349 267.078918 444.271637 264.297913 433.691376 262.065674 C 429.807526 261.246246 428.502838 259.296844 428.734741 255.48793 C 428.99762 251.170731 428.8862 246.824524 428.79538 242.493912 C 428.719482 238.874741 429.684662 237.195877 433.804047 238.395798 C 438.902893 239.881012 444.161499 240.817688 449.752747 242.101532 z" stroke-linecap="round" />
</g>
<g transform="matrix(1 0 0 1 416.16 505.02)"  >
<path style="stroke: none; stroke-width: 1; stroke-dasharray: none; stroke-linecap: butt; stroke-dashoffset: 0; stroke-linejoin: miter; stroke-miterlimit: 4; fill: rgb(255,255,255); fill-rule: nonzero; opacity: 1;" vector-effect="non-scaling-stroke"  transform=" translate(-287.6, -235.84)" d="M 355.2612 224.214447 C 355.723175 254.753143 341.025574 276.111176 316.636871 291.916016 C 310.351624 295.989105 303.947021 299.911835 297.93454 304.359619 C 294.210419 307.114563 290.418335 308.2659 285.88913 308.063965 C 281.068939 307.849121 276.231079 308.036133 271.40094 308.036713 C 269.626251 308.036926 267.747864 308.322174 266.21817 306.25705 C 271.794983 300.600494 278.33905 296.379669 284.719147 292.000427 C 293.641815 285.875977 302.852386 280.167969 311.723816 273.972534 C 326.608307 263.57782 336.429962 249.917099 337.981354 231.277893 C 338.528961 224.698532 337.816467 223.997162 331.390015 223.951218 C 329.224823 223.935745 327.056885 223.871857 324.894745 223.952408 C 318.490082 224.191055 313.302856 224.256622 310.553497 215.90567 C 307.999908 208.149399 300.082336 205.212402 291.787903 205.197906 C 270.135376 205.160049 248.482788 205.170609 226.830215 205.164841 C 220.30304 205.163101 220.019394 204.926086 219.996277 198.498505 C 219.960922 188.671707 220.091919 178.842804 219.923431 169.018723 C 219.853302 164.929703 221.344498 163.569168 225.493088 163.599976 C 247.977112 163.766937 270.463928 163.544006 292.948181 163.695007 C 324.492432 163.906845 350.450104 187.081482 354.42038 218.319458 C 354.651001 220.133942 354.968689 221.937347 355.2612 224.214447 z" stroke-linecap="round" />
</g>
<g transform="matrix(1 0 0 1 552.35 467.04)"  >
<path style="stroke: none; stroke-width: 1; stroke-dasharray: none; stroke-linecap: butt; stroke-dashoffset: 0; stroke-linejoin: miter; stroke-miterlimit: 4; fill: rgb(255,255,255); fill-rule: nonzero; opacity: 1;" vector-effect="non-scaling-stroke"  transform=" translate(-423.79, -197.85)" d="M 419.157806 108.3778 C 422.758881 108.759323 424.102112 110.932602 423.110321 113.657135 C 420.386749 121.139061 421.567993 128.829193 421.379333 136.436935 C 421.201752 143.598038 420.680878 150.840256 421.460327 157.920273 C 425.223267 192.099091 422.212708 226.363159 423.117615 260.571198 C 423.221375 264.49231 424.688232 266.096222 428.477142 266.87384 C 438.906311 269.014313 449.249298 271.572968 459.635254 273.926758 C 464.641785 275.061462 467.45752 281.278778 464.938782 285.87323 C 463.743439 288.053741 461.774353 287.246307 460.059753 286.848572 C 443.038849 282.900665 426.026581 278.915405 409.016113 274.922699 C 401.565552 273.173889 394.172821 271.128296 386.66037 269.713837 C 382.55899 268.94162 381.699036 266.813507 381.711151 263.142548 C 381.789703 239.313187 381.731354 215.483368 381.719269 191.653702 C 381.71579 184.821411 381.705261 177.989105 381.719818 171.156845 C 381.733582 164.682571 381.746185 164.673889 388.454834 164.665009 C 396.620239 164.654205 404.787354 164.5634 412.950287 164.704865 C 416.334351 164.763504 417.735931 163.60437 417.706055 160.083832 C 417.591461 146.587082 417.673706 133.088577 417.697418 119.590759 C 417.700409 117.889908 417.310333 116.361656 416.503784 114.823959 C 415.019775 111.994614 415.522369 109.670372 419.157806 108.3778 z" stroke-linecap="round" />
</g>
<g transform="matrix(1 0 0 1 644.75 667.66)"  >
<path style="stroke: none; stroke-width: 1; stroke-dasharray: none; stroke-linecap: butt; stroke-dashoffset: 0; stroke-linejoin: miter; stroke-miterlimit: 4; fill: rgb(255,255,255); fill-rule: nonzero; opacity: 1;" vector-effect="non-scaling-stroke"  transform=" translate(-516.19, -398.48)" d="M 504.393005 421.371552 C 505.677307 424.793884 508.366364 423.794586 510.520111 423.848145 C 513.717529 423.927643 514.375122 425.702606 514.361206 428.405914 C 514.347351 431.096771 513.233337 432.375946 510.473022 432.347046 C 504.310822 432.282501 498.146973 432.27243 491.984924 432.340729 C 489.454132 432.368744 488.478729 431.331665 488.414825 428.778931 C 487.918671 408.963959 487.998566 389.151428 488.331726 369.335236 C 488.392426 365.7229 489.642395 364.452118 493.369049 364.568054 C 497.49704 364.696411 497.297913 367.16153 497.272003 369.935577 C 497.230011 374.432556 497.333679 378.932312 497.216003 383.426697 C 497.140381 386.31662 498.135559 387.735107 501.237244 387.673035 C 506.897552 387.559753 512.5625 387.695465 518.225403 387.684357 C 520.687744 387.679535 523.323242 387.232971 523.46344 384.28952 C 523.621338 380.972198 520.831482 380.450165 518.202026 380.376099 C 515.039673 380.287018 511.872162 380.391113 508.708649 380.326416 C 506.309021 380.277344 504.426483 380.673004 504.166016 383.63855 C 504.004395 385.47818 502.628479 386.10614 500.924438 385.906067 C 499.272217 385.712067 498.773438 384.502563 498.76889 383.044647 C 498.750244 377.099243 498.761078 371.153748 498.761078 364.921143 C 507.761078 364.921143 516.311401 364.062866 524.614014 365.130615 C 535.898193 366.581848 542.368347 378.215515 539.017822 389.816803 C 538.128601 392.895874 538.354431 394.952911 540.15918 397.5495 C 545.40625 405.098755 545.624878 413.227448 541.151978 421.126953 C 536.773987 428.858765 529.80127 432.426758 520.83844 432.404907 C 517.265442 432.396179 515.365723 431.334412 515.832214 427.575958 C 516.363037 423.299652 514.358337 421.897247 510.34903 422.295715 C 508.28067 422.501251 506.087158 422.269592 506.055481 419.442322 C 506.021973 416.455872 508.379669 416.708832 510.363861 416.679565 C 513.69458 416.630402 517.032593 416.77301 520.355957 416.605621 C 524.740601 416.384766 527.917725 413.574707 527.70105 409.994507 C 527.418884 405.329895 524.223328 403.877472 520.09906 403.93985 C 500.628784 404.234192 504.808533 401.088623 504.288025 418.946014 C 504.268616 419.610931 504.318817 420.277893 504.393005 421.371552 z" stroke-linecap="round" />
</g>
<g transform="matrix(1 0 0 1 579.23 631.9)"  >
<path style="stroke: none; stroke-width: 1; stroke-dasharray: none; stroke-linecap: butt; stroke-dashoffset: 0; stroke-linejoin: miter; stroke-miterlimit: 4; fill: rgb(255,255,255); fill-rule: nonzero; opacity: 1;" vector-effect="non-scaling-stroke"  transform=" translate(-450.68, -362.72)" d="M 432.272125 368.774872 C 436.400482 369.726776 437.697906 372.10376 437.342529 375.832672 C 437.09671 378.411743 437.295319 381.033112 437.295319 384.680328 C 444.518066 379.377594 449.649414 373.522522 454.970184 367.957703 C 457.930756 364.861389 461.022766 363.592285 465.113373 363.922211 C 469.933319 364.310913 474.888672 363.292206 480.70401 365.032684 C 469.364471 376.176758 458.761627 386.596832 448.142487 397.032898 C 452.88562 403.984467 459.819946 407.684235 463.766907 414.458801 C 460.178772 415.928802 457.562531 415.547058 455.188538 413.100677 C 451.479736 409.278839 447.344757 405.81778 444.000977 401.707123 C 439.280029 395.903442 433.663574 393.109711 426.20462 394.359497 C 422.022186 395.060303 420.787231 393.267792 420.804657 389.134827 C 420.910492 364.001465 420.774353 338.867065 420.750275 313.733002 C 420.74884 312.231018 419.967865 309.906311 422.705353 310.140625 C 424.900696 310.328461 424.134857 312.351074 424.132385 313.738922 C 424.106842 328.219238 424.059143 342.699524 424.026489 357.17984 C 424.007812 365.453278 424.015198 365.453308 432.272125 368.774872 z" stroke-linecap="round" />
</g>
<g transform="matrix(1 0 0 1 393.55 666.21)"  >
<path style="stroke: none; stroke-width: 1; stroke-dasharray: none; stroke-linecap: butt; stroke-dashoffset: 0; stroke-linejoin: miter; stroke-miterlimit: 4; fill: rgb(255,255,255); fill-rule: nonzero; opacity: 1;" vector-effect="non-scaling-stroke"  transform=" translate(-264.99, -397.03)" d="M 282.971191 383.000458 C 282.965729 399.56369 282.965729 415.627075 282.965729 432.387634 C 276.870422 431.028412 272.519531 428.648193 268.124786 426.44165 C 266.310364 425.53064 266.695312 423.579041 266.68692 421.956177 C 266.645569 413.957336 266.533142 405.955597 266.705322 397.960449 C 266.780334 394.478241 265.531128 393.149231 262.05603 393.328339 C 258.234283 393.525299 254.392899 393.314209 250.56044 393.338593 C 248.373367 393.352509 247.095642 392.518555 247.011612 390.171326 C 246.917984 387.555939 248.263794 386.633698 250.699966 386.662903 C 254.532104 386.708832 258.369019 386.550812 262.197083 386.680176 C 265.379822 386.78772 266.74884 385.516876 266.680206 382.277374 C 266.570801 377.11441 266.850861 371.941345 266.679138 366.782135 C 266.554749 363.046051 268.206512 361.898407 271.737396 361.780731 C 282.997772 361.405487 282.993408 361.3078 282.977936 372.501801 C 282.973328 375.834747 282.976837 379.167694 282.971191 383.000458 z" stroke-linecap="round" />
</g>
<g transform="matrix(1 0 0 1 453.36 658.3)"  >
<path style="stroke: none; stroke-width: 1; stroke-dasharray: none; stroke-linecap: butt; stroke-dashoffset: 0; stroke-linejoin: miter; stroke-miterlimit: 4; fill: rgb(255,255,255); fill-rule: nonzero; opacity: 1;" vector-effect="non-scaling-stroke"  transform=" translate(-324.81, -389.12)" d="M 302.195801 403.027374 C 308.440857 389.155579 314.61322 375.641449 320.785583 362.127319 C 321.396729 362.125427 322.007904 362.123535 322.619049 362.121643 C 330.702972 379.719971 338.786865 397.318298 347.418152 416.108215 C 337.077881 416.108215 328.184052 416.126984 319.290558 416.08252 C 318.27478 416.077454 317.246674 415.605286 317.132904 414.412476 C 317.003662 413.056824 317.825562 412.142822 319.110291 411.974274 C 321.38562 411.675781 323.686249 411.569916 326.23877 411.36203 C 326.371735 407.034454 323.576324 404.161652 322.281128 400.621948 C 318.419983 404.72052 308.227478 407.014465 303.018341 404.99585 C 302.577972 404.825256 302.414948 403.938904 302.195801 403.027374 z" stroke-linecap="round" />
</g>
<g transform="matrix(1 0 0 1 512.17 659.91)"  >
<path style="stroke: none; stroke-width: 1; stroke-dasharray: none; stroke-linecap: butt; stroke-dashoffset: 0; stroke-linejoin: miter; stroke-miterlimit: 4; fill: rgb(255,255,255); fill-rule: nonzero; opacity: 1;" vector-effect="non-scaling-stroke"  transform=" translate(-383.62, -390.73)" d="M 372.84668 416.045258 C 369.918915 418.25647 368.190002 416.756104 366.730011 414.69455 C 363.897491 410.695068 361.692383 406.397491 361.675995 401.357574 C 361.667419 398.712433 360.866425 397.192261 357.949219 397.400024 C 355.039795 397.607239 354.620972 395.843872 355.048859 393.522888 C 357.402771 380.75473 364.29425 371.349945 376.493866 366.730743 C 388.590729 362.150391 400.054535 364.187164 410.419861 372.049622 C 412.587524 373.693817 413.167053 375.289642 410.806427 377.246643 C 409.783875 378.09436 408.763092 379.003174 407.96698 380.054901 C 404.62912 384.464539 401.372223 385.788422 395.954803 382.362671 C 389.494751 378.277679 380.657043 380.568512 375.537537 386.32431 C 370.080017 392.460083 369.320099 401.507416 374.295166 408.516937 C 376.627838 411.803497 376.371063 413.816833 372.84668 416.045258 z" stroke-linecap="round" />
</g>
<g transform="matrix(1 0 0 1 702.4 673.81)"  >
<path style="stroke: none; stroke-width: 1; stroke-dasharray: none; stroke-linecap: butt; stroke-dashoffset: 0; stroke-linejoin: miter; stroke-miterlimit: 4; fill: rgb(255,255,255); fill-rule: nonzero; opacity: 1;" vector-effect="non-scaling-stroke"  transform=" translate(-573.85, -404.63)" d="M 548.926758 426.286499 C 546.374756 423.883026 548.13385 422.842957 549.935059 422.135834 C 556.216431 419.669861 562.06073 416.255463 569.349304 416.510773 C 577.011597 416.779175 583.522888 409.85849 583.793579 402.12793 C 584.038147 395.143799 584.023682 388.144379 583.896301 381.155823 C 583.82605 377.303467 585.600342 376.27298 589.121948 376.532501 C 592.31958 376.768097 595.66333 376.16629 595.327148 381.20343 C 595.061646 385.180786 595.268616 389.190552 595.28894 393.185822 C 595.303589 396.079163 594.554443 399.08905 598.715027 400.343292 C 600.641174 400.92392 599.980591 403.491608 599.753906 405.297333 C 596.712646 429.523804 569.61853 440.888031 548.926758 426.286499 z" stroke-linecap="round" />
</g>
<g transform="matrix(1 0 0 1 578.98 683.3)"  >
<path style="stroke: none; stroke-width: 1; stroke-dasharray: none; stroke-linecap: butt; stroke-dashoffset: 0; stroke-linejoin: miter; stroke-miterlimit: 4; fill: rgb(255,255,255); fill-rule: nonzero; opacity: 1;" vector-effect="non-scaling-stroke"  transform=" translate(-450.43, -414.12)" d="M 420.837799 426.823669 C 420.860168 418.178558 421.035187 410.011597 420.84021 401.853485 C 420.73941 397.634003 422.109497 396.072968 426.542297 395.850525 C 432.957916 395.528595 438.269196 396.668518 442.395142 402.026154 C 444.407898 404.639801 447.148132 406.681854 449.453247 409.084167 C 453.738983 413.55069 457.865936 418.239227 465.05191 416.956207 C 465.508514 416.874695 466.108368 417.000549 466.501862 417.250214 C 472.112823 420.810455 476.325562 425.719788 480.072479 431.351715 C 470.220642 431.477997 460.006714 435.604156 452.246521 425.233917 C 448.454865 420.166931 443.640076 415.620819 437.917145 411.300781 C 436.735718 416.983856 437.296387 422.107452 437.346954 427.158142 C 437.385254 430.982758 436.214325 432.806274 432.181946 432.3703 C 430.205688 432.156647 428.176147 432.192902 426.190796 432.357788 C 422.438873 432.669312 420.418121 431.326538 420.837799 426.823669 z" stroke-linecap="round" />
</g>
<g transform="matrix(1 0 0 1 448.68 688.71)"  >
<path style="stroke: none; stroke-width: 1; stroke-dasharray: none; stroke-linecap: butt; stroke-dashoffset: 0; stroke-linejoin: miter; stroke-miterlimit: 4; fill: rgb(255,255,255); fill-rule: nonzero; opacity: 1;" vector-effect="non-scaling-stroke"  transform=" translate(-320.12, -419.53)" d="M 350.599976 423.075134 C 351.573334 425.160675 351.502563 426.586029 349.424072 427.446381 C 346.1922 428.78421 342.99765 430.212006 339.77594 431.574829 C 338.621002 432.063354 337.374512 432.182495 336.660828 430.960266 C 334.675018 427.559357 331.418732 427.961792 328.261993 427.961487 C 323.762268 427.961029 319.262177 427.973022 314.762909 427.922821 C 311.639923 427.88797 308.31366 427.139313 306.786285 431.176239 C 306.576843 431.729858 305.414978 432.218475 304.684662 432.232056 C 299.739044 432.324005 294.790894 432.28009 289.033569 432.28009 C 292.292572 423.347992 296.199066 415.705292 300.08017 408.060303 C 300.638336 406.960785 302.035675 406.895691 303.220612 406.857697 C 304.552765 406.814941 305.887543 406.768677 307.219086 406.80368 C 316.855499 407.057434 319.227386 404.695953 314.026794 416.710297 C 315.057281 418.308746 316.709625 417.682465 318.093719 417.69165 C 326.259491 417.745911 334.433441 417.913391 342.588959 417.61438 C 346.7229 417.462769 349.324615 418.743591 350.599976 423.075134 z" stroke-linecap="round" />
</g>
<g transform="matrix(1 0 0 1 512.13 685.04)"  >
<path style="stroke: none; stroke-width: 1; stroke-dasharray: none; stroke-linecap: butt; stroke-dashoffset: 0; stroke-linejoin: miter; stroke-miterlimit: 4; fill: rgb(255,255,255); fill-rule: nonzero; opacity: 1;" vector-effect="non-scaling-stroke"  transform=" translate(-383.57, -415.86)" d="M 362.887207 411.028595 C 363.623993 412.379883 364.147736 413.426056 364.778229 414.403351 C 368.714203 420.503784 369.213165 420.65506 374.912109 416.134552 C 377.221802 414.302429 379.1875 413.565521 382.119141 415.001129 C 387.880524 417.822449 393.605347 416.678375 398.670166 413.21463 C 401.498505 411.280426 403.416107 411.453369 405.474579 413.939148 C 406.214966 414.833221 407.098328 415.608612 407.913025 416.441528 C 413.976624 422.640778 413.924988 422.998444 406.289459 427.736603 C 386.485504 440.025787 358.815735 427.310272 355.290253 404.262451 C 355.010529 402.433655 353.979095 399.88739 356.862457 399.29248 C 359.622253 398.723053 359.991516 401.070343 360.275421 403.127777 C 360.643372 405.794373 361.505768 408.300385 362.887207 411.028595 z" stroke-linecap="round" />
</g>
<g transform="matrix(1 0 0 1 724.81 632.58)"  >
<path style="stroke: none; stroke-width: 1; stroke-dasharray: none; stroke-linecap: butt; stroke-dashoffset: 0; stroke-linejoin: miter; stroke-miterlimit: 4; fill: rgb(255,255,255); fill-rule: nonzero; opacity: 1;" vector-effect="non-scaling-stroke"  transform=" translate(-596.25, -363.4)" d="M 602.112305 330.317047 C 604.838928 329.461487 604.575134 331.197357 604.567261 332.707947 C 604.463867 352.47818 604.361267 372.248444 604.248901 392.018616 C 604.236572 394.183289 604.500427 396.730835 601.301147 396.706573 C 597.815735 396.680206 598.182922 393.957611 598.224548 391.626404 C 598.301514 387.311523 598.469849 382.997589 598.493896 378.682678 C 598.513123 375.22699 597.341003 372.79129 593.226624 373.329163 C 588.750244 373.914368 588.003052 371.275665 587.933228 367.599182 C 587.857666 363.620697 589.312439 361.627045 593.475159 362.015533 C 594.792419 362.138489 596.13501 361.962738 597.460205 362.033661 C 600.69043 362.206635 601.824402 360.658844 601.797791 357.516205 C 601.721863 348.550964 601.84082 339.584106 602.112305 330.317047 z" stroke-linecap="round" />
</g>
<g transform="matrix(1 0 0 2.74 676.79 527.75)" id="285899c2-ed8f-426c-ba47-909f623ddf26"  >
<rect style="stroke: rgb(0,0,0); stroke-width: 0; stroke-dasharray: none; stroke-linecap: butt; stroke-dashoffset: 0; stroke-linejoin: miter; stroke-miterlimit: 4; fill: rgb(30,173,14); fill-rule: nonzero; opacity: 1;" vector-effect="non-scaling-stroke"  x="-33.0835" y="-33.0835" rx="0" ry="0" width="66.167" height="66.167" />
</g>
<g transform="matrix(1 0 0 1.48 741.73 486.67)" id="9bc01ce7-5d2a-4763-be24-fcf1720689f7"  >
<rect style="stroke: rgb(0,0,0); stroke-width: 0; stroke-dasharray: none; stroke-linecap: butt; stroke-dashoffset: 0; stroke-linejoin: miter; stroke-miterlimit: 4; fill: rgb(224,238,8); fill-rule: nonzero; opacity: 1;" vector-effect="non-scaling-stroke"  x="-33.0835" y="-33.0835" rx="0" ry="0" width="66.167" height="66.167" />
</g>
<g transform="matrix(1 0 0 1.24 742.31 578.66)" id="68a4adf0-6fc8-4f49-a749-6cac6b7d91fe"  >
<rect style="stroke: rgb(0,0,0); stroke-width: 0; stroke-dasharray: none; stroke-linecap: butt; stroke-dashoffset: 0; stroke-linejoin: miter; stroke-miterlimit: 4; fill: rgb(255,0,0); fill-rule: nonzero; opacity: 1;" vector-effect="non-scaling-stroke"  x="-33.0835" y="-33.0835" rx="0" ry="0" width="66.167" height="66.167" />
</g>
</svg>